<svg width="24" height="24" viewBox="0 0 24 24" fill="none" xmlns="http://www.w3.org/2000/svg">
<path d="M12 19.862C6.05836 19.862 1.24139 18.6364 1.24139 17.3793V20.2742C1.2447 21.5304 6.06002 22.7586 12 22.7586C17.94 22.7586 22.7553 21.5304 22.7586 20.2742V17.3793C22.7586 18.6364 17.9417 19.862 12 19.862Z" fill="#E4AF18"/>
<path d="M10.7586 15.3103C4.81697 15.3103 0 14.0846 0 12.8275V15.7224C0.00331035 16.9787 4.81862 18.2068 10.7586 18.2068C16.6986 18.2068 21.5139 16.9787 21.5172 15.7224V12.8275C21.5172 14.0846 16.7003 15.3103 10.7586 15.3103Z" fill="#F4BF1A"/>
<path d="M13.2414 10.7585C7.29975 10.7585 2.48279 9.53286 2.48279 8.27576V11.1707C2.4861 12.4269 7.30141 13.6551 13.2414 13.6551C19.1814 13.6551 23.9967 12.4269 24 11.1707V8.27576C24 9.53286 19.1831 10.7585 13.2414 10.7585Z" fill="#E4AF18"/>
<path d="M21.5172 3.36409C21.5172 4.62078 16.7003 5.79306 10.7586 5.79306C4.81697 5.79306 0 4.62078 0 3.36409C0 2.10699 4.81697 1.24133 10.7586 1.24133C16.7003 1.24133 21.5172 2.10699 21.5172 3.36409Z" fill="#FFD949"/>
<path d="M10.7586 5.79306C4.81697 5.79306 0 4.56741 0 3.3103V6.2052C0.00331035 7.46148 4.81862 8.68961 10.7586 8.68961C16.6986 8.68961 21.5139 7.46148 21.5172 6.2052V3.3103C21.5172 4.56741 16.7003 5.79306 10.7586 5.79306Z" fill="#F4BF1A"/>
<path d="M1.65515 4.58228V7.47676C1.90674 7.56945 2.18232 7.65883 2.48274 7.74407V4.84917C2.18232 4.76393 1.90674 4.67455 1.65515 4.58228Z" fill="#DCA815"/>
<path d="M19.0345 4.84917V7.74407C19.3349 7.65883 19.6105 7.56945 19.8621 7.47676V4.58228C19.6105 4.67497 19.3349 4.76393 19.0345 4.84917Z" fill="#DCA815"/>
<path d="M3.72412 5.14966V8.04497C3.98895 8.1 4.26495 8.15214 4.55171 8.20138V5.30607C4.26495 5.25683 3.98895 5.20469 3.72412 5.14966Z" fill="#DCA815"/>
<path d="M16.9655 5.30607V8.2018C17.2523 8.15214 17.5283 8.1 17.7931 8.04497V5.14966C17.5283 5.20469 17.2523 5.25683 16.9655 5.30607Z" fill="#DCA815"/>
<path d="M5.79309 5.4906V8.38633C6.06288 8.42108 6.33806 8.45336 6.62068 8.48233V5.5866C6.33806 5.55764 6.06288 5.52495 5.79309 5.4906Z" fill="#DCA815"/>
<path d="M14.8965 5.58701V8.48274C15.1792 8.45336 15.4543 8.42108 15.7241 8.38674V5.4906C15.4543 5.52577 15.1792 5.55805 14.8965 5.58701Z" fill="#DCA815"/>
<path d="M7.86206 5.69336V8.5895C8.13392 8.60853 8.40951 8.6255 8.68965 8.63915V5.7426C8.40951 5.72895 8.13392 5.71239 7.86206 5.69336Z" fill="#DCA815"/>
<path d="M12.8276 5.7426V8.63915C13.1077 8.6255 13.3833 8.60853 13.6552 8.5895V5.69336C13.3833 5.71239 13.1077 5.72895 12.8276 5.7426Z" fill="#DCA815"/>
<path d="M10.7586 5.79301C10.62 5.79301 10.4822 5.79177 10.3448 5.79053V8.68708C10.4822 8.68832 10.62 8.68956 10.7586 8.68956C10.8973 8.68956 11.0351 8.68832 11.1724 8.68708V5.79053C11.0351 5.79177 10.8973 5.79301 10.7586 5.79301Z" fill="#DCA815"/>
<path d="M4.13794 9.54785V12.4423C4.38953 12.535 4.66511 12.6244 4.96553 12.7096V9.81475C4.66511 9.72951 4.38953 9.64013 4.13794 9.54785Z" fill="#C49214"/>
<path d="M21.5172 9.81475V12.7096C21.8176 12.6244 22.0932 12.535 22.3448 12.4423V9.54785C22.0932 9.64054 21.8176 9.72951 21.5172 9.81475Z" fill="#C49214"/>
<path d="M6.20691 10.1151V13.0104C6.47174 13.0655 6.74774 13.1176 7.03449 13.1668V10.2715C6.74774 10.2223 6.47174 10.1701 6.20691 10.1151Z" fill="#C49214"/>
<path d="M19.4483 10.2715V13.1672C19.7351 13.1176 20.0111 13.0655 20.2759 13.0104V10.1151C20.0111 10.1701 19.7351 10.2223 19.4483 10.2715Z" fill="#C49214"/>
<path d="M8.27588 10.4565V13.3523C8.54567 13.387 8.82084 13.4193 9.10347 13.4483V10.5525C8.82084 10.5232 8.54567 10.4909 8.27588 10.4565Z" fill="#C49214"/>
<path d="M17.3793 10.5521V13.4483C17.662 13.4189 17.9371 13.3866 18.2069 13.3523V10.4565C17.9371 10.4913 17.662 10.5236 17.3793 10.5521Z" fill="#C49214"/>
<path d="M10.3448 10.6588V13.555C10.6167 13.574 10.8923 13.591 11.1724 13.6046V10.7081C10.8923 10.6944 10.6167 10.6778 10.3448 10.6588Z" fill="#C49214"/>
<path d="M15.3104 10.7081V13.6046C15.5905 13.591 15.8661 13.574 16.1379 13.555V10.6588C15.8661 10.6778 15.5905 10.6944 15.3104 10.7081Z" fill="#C49214"/>
<path d="M13.2414 10.7586C13.1027 10.7586 12.965 10.7573 12.8276 10.7561V13.6527C12.965 13.6539 13.1027 13.6551 13.2414 13.6551C13.38 13.6551 13.5178 13.6539 13.6552 13.6527V10.7561C13.5178 10.7573 13.38 10.7586 13.2414 10.7586Z" fill="#C49214"/>
<path d="M1.65515 14.0995V16.994C1.90674 17.0867 2.18232 17.1756 2.48274 17.2613V14.3664C2.18232 14.2811 1.90674 14.1918 1.65515 14.0995Z" fill="#DCA815"/>
<path d="M19.0345 14.3664V17.2613C19.3349 17.176 19.6105 17.0867 19.8621 16.994V14.0995C19.6105 14.1922 19.3349 14.2811 19.0345 14.3664Z" fill="#DCA815"/>
<path d="M3.72412 14.6669V17.5622C3.98895 17.6172 4.26495 17.6694 4.55171 17.7186V14.8233C4.26495 14.774 3.98895 14.7219 3.72412 14.6669Z" fill="#DCA815"/>
<path d="M16.9655 14.8233V17.719C17.2523 17.6694 17.5283 17.6172 17.7931 17.5622V14.6669C17.5283 14.7219 17.2523 14.774 16.9655 14.8233Z" fill="#DCA815"/>
<path d="M5.79309 15.0082V17.9039C6.06288 17.9387 6.33806 17.9709 6.62068 17.9999V15.1042C6.33806 15.0748 6.06288 15.0425 5.79309 15.0082Z" fill="#DCA815"/>
<path d="M14.8965 15.1038V17.9999C15.1792 17.9705 15.4543 17.9382 15.7241 17.9039V15.0082C15.4543 15.0429 15.1792 15.0752 14.8965 15.1038Z" fill="#DCA815"/>
<path d="M7.86206 15.2106V18.1067C8.13392 18.1257 8.40951 18.1427 8.68965 18.1564V15.2598C8.40951 15.2462 8.13392 15.2296 7.86206 15.2106Z" fill="#DCA815"/>
<path d="M12.8276 15.2598V18.1564C13.1077 18.1427 13.3833 18.1257 13.6552 18.1067V15.2106C13.3833 15.2296 13.1077 15.2462 12.8276 15.2598Z" fill="#DCA815"/>
<path d="M10.7586 15.3103C10.62 15.3103 10.4822 15.3091 10.3448 15.3079V18.2044C10.4822 18.2057 10.62 18.2069 10.7586 18.2069C10.8973 18.2069 11.0351 18.2057 11.1724 18.2044V15.3079C11.0351 15.3091 10.8973 15.3103 10.7586 15.3103Z" fill="#DCA815"/>
<path d="M2.89655 18.6512V21.5457C3.14813 21.6384 3.42372 21.7274 3.72413 21.813V18.9181C3.42372 18.8329 3.14813 18.7435 2.89655 18.6512Z" fill="#C49214"/>
<path d="M20.2759 18.9181V21.813C20.5763 21.7278 20.8519 21.6384 21.1035 21.5457V18.6512C20.8519 18.7439 20.5763 18.8329 20.2759 18.9181Z" fill="#C49214"/>
<path d="M4.96552 19.2186V22.1139C5.23034 22.169 5.50634 22.2211 5.7931 22.2704V19.375C5.50634 19.3258 5.23034 19.2737 4.96552 19.2186Z" fill="#C49214"/>
<path d="M18.2069 19.375V22.2708C18.4937 22.2211 18.7697 22.169 19.0345 22.1139V19.2186C18.7697 19.2737 18.4937 19.3258 18.2069 19.375Z" fill="#C49214"/>
<path d="M7.03448 19.5599V22.4557C7.30428 22.4904 7.57945 22.5227 7.86207 22.5517V19.6559C7.57945 19.6266 7.30428 19.5943 7.03448 19.5599Z" fill="#C49214"/>
<path d="M16.1379 19.6555V22.5517C16.4206 22.5223 16.6957 22.49 16.9655 22.4557V19.5599C16.6957 19.5947 16.4206 19.627 16.1379 19.6555Z" fill="#C49214"/>
<path d="M9.10345 19.7623V22.6585C9.37532 22.6775 9.6509 22.6945 9.93104 22.7081V19.8116C9.6509 19.7979 9.37532 19.7814 9.10345 19.7623Z" fill="#C49214"/>
<path d="M14.069 19.8116V22.7081C14.3491 22.6945 14.6247 22.6775 14.8966 22.6585V19.7623C14.6247 19.7814 14.3491 19.7979 14.069 19.8116Z" fill="#C49214"/>
<path d="M12 19.862C11.8614 19.862 11.7236 19.8607 11.5862 19.8595V22.7561C11.7236 22.7573 11.8614 22.7585 12 22.7585C12.1386 22.7585 12.2764 22.7573 12.4138 22.7561V19.8595C12.2764 19.8607 12.1386 19.862 12 19.862Z" fill="#C49214"/>
<path d="M21.1912 16.2919C20.016 17.3255 15.7916 18.2069 10.7586 18.2069C6.82346 18.2069 3.3836 17.6677 1.50788 16.9386C1.33533 17.095 1.24139 17.2606 1.24139 17.4331C1.24139 18.6902 6.05836 19.8621 12 19.8621C17.9421 19.8621 22.7586 18.6902 22.7586 17.4331C22.7586 16.9999 22.1855 16.6126 21.1912 16.2919Z" fill="#FCC62D"/>
<path d="M13.2414 13.6551C7.77393 13.6551 3.26234 12.6144 2.57628 11.469C0.971172 11.8327 0 12.3173 0 12.8813C0 14.138 4.81697 15.3102 10.7586 15.3102C16.7003 15.3102 21.5172 14.138 21.5172 12.8813C21.5172 12.8258 21.5048 12.7716 21.4862 12.7178C19.5128 13.2731 16.5526 13.6551 13.2414 13.6551Z" fill="#FFD949"/>
<path d="M21.1006 6.84778C19.8133 7.84916 15.672 8.68957 10.7586 8.68957C7.58568 8.68957 4.73424 8.33867 2.765 7.82061C2.58251 7.98199 2.48279 8.15164 2.48279 8.32957C2.48279 9.58667 7.29975 10.7585 13.2414 10.7585C19.1831 10.7585 24 9.58667 24 8.32957C24 7.72874 22.8981 7.21771 21.1006 6.84778Z" fill="#FCC62D"/>
</svg>
